<?xml version="1.0" encoding="utf-8"?>
<!-- Generator: Adobe Illustrator 23.0.2, SVG Export Plug-In . SVG Version: 6.00 Build 0)  -->
<svg version="1.1" id="Layer_3" xmlns="http://www.w3.org/2000/svg" xmlns:xlink="http://www.w3.org/1999/xlink" x="0px" y="0px"
	 viewBox="0 0 36 36" style="enable-background:new 0 0 36 36;" xml:space="preserve">
<style type="text/css">
	.st0{fill:none;stroke:#225747;stroke-width:0.75;stroke-linecap:round;stroke-linejoin:round;stroke-miterlimit:10;}
	.st1{fill:none;stroke:#225747;stroke-width:0.75;stroke-miterlimit:10;}
	.st2{fill:#225747;stroke:#225747;stroke-miterlimit:10;}
</style>
<g>
	<path class="st0" d="M6.41,9.12c2.2-1.5,5.14-2.59,7.25-0.35c1.62,1.72,2.32,4.9,0.3,6.6c-0.48,0.4-1.87,1.14-1.08,1.89
		c0.22,0.21,0.56,0.22,0.84,0.12c0.28-0.1,0.52-0.29,0.76-0.47c0.45-0.34,1.3-1.11,1.91-0.96c1.13,0.26-1.51,2.26-1.76,2.46
		c-0.16,0.13-0.31,0.25-0.47,0.38c0,0,7.59-4.39,1.66,1.01c0.42-0.25,0.85-0.49,1.28-0.72c0.3-0.16,2.48-1.43,2.6-0.67
		c0.05,0.35-1.26,1.25-1.49,1.47c-0.54,0.52-1.5,1.35-1.11,2.19c0.25,0.55,0.8,1.1,1.19,1.56c1.04,1.23,2.16,2.41,3.36,3.48
		c0.65,0.58,1.32,1.15,2.06,1.61c0.41,0.25,1.01,0.64,1.52,0.5c3.72-1.03-6.8-19.92-6.8-19.92s7.31,3.95,8.4,6.96
		s-7.21-1.73-2.39-8.22"/>
	<circle class="st1" cx="10.69" cy="12.06" r="2.06"/>
	<circle class="st2" cx="28.02" cy="11.18" r="2.06"/>
</g>
</svg>
