<svg id="Layer_3" data-name="Layer 3" xmlns="http://www.w3.org/2000/svg" viewBox="0 0 24.55 22.51"><defs><style>.cls-1,.cls-2{fill:none;stroke-width:0.75px;}.cls-1,.cls-2,.cls-3{stroke:#fff;}.cls-1{stroke-linecap:round;stroke-linejoin:round;}.cls-2,.cls-3{stroke-miterlimit:10;}.cls-3{fill:#fff;}</style></defs><title>logowhite</title><path class="cls-1" d="M6.41,9.12c2.2-1.5,5.14-2.59,7.25-.35,1.62,1.72,2.32,4.9.3,6.6-.48.4-1.87,1.14-1.08,1.89a.82.82,0,0,0,.84.12,3,3,0,0,0,.76-.47c.45-.34,1.3-1.11,1.91-1,1.13.26-1.51,2.26-1.76,2.46l-.47.38s7.59-4.39,1.66,1c.42-.25.85-.49,1.28-.72s2.48-1.43,2.6-.67c.05.35-1.26,1.25-1.49,1.47-.54.52-1.5,1.35-1.11,2.19a7.77,7.77,0,0,0,1.19,1.56,34.52,34.52,0,0,0,3.36,3.48,15.22,15.22,0,0,0,2.06,1.61c.41.25,1,.64,1.52.5,3.72-1-6.8-19.92-6.8-19.92s7.31,3.95,8.4,7S19.62,14.53,24.44,8" transform="translate(-6.03 -7.12)"/><circle class="cls-2" cx="4.65" cy="4.94" r="2.06"/><circle class="cls-3" cx="21.99" cy="4.06" r="2.06"/></svg>